PathFileType	4	(X/Y/Z)	intermediate\S1_nor_fast_left\tmpqolbj2xf.trc
DataRate	CameraRate	NumFrames	NumMarkers	Units	OrigDataRate	OrigDataStartFrame	OrigNumFrames
250.0	250.0	11	18	mm	250.0	2319	3710
Frame#	Time	c7			r_should			l_should			clavicle			r_upa			r_elb_l			r_elb_m			r_low			r_wri_l			r_wri_m			r_met			l_upa			l_elb_l			l_elb_m			l_low			l_wri_l			l_wri_m			l_met			
		X	Y	Z	X	Y	Z	X	Y	Z	X	Y	Z	X	Y	Z	X	Y	Z	X	Y	Z	X	Y	Z	X	Y	Z	X	Y	Z	X	Y	Z	X	Y	Z	X	Y	Z	X	Y	Z	X	Y	Z	X	Y	Z	X	Y	Z	X	Y	Z	
2319	9.272000	950.013184	1418.573853	150.765060	1039.926880	1354.040649	328.246948	996.298584	1351.657471	-43.679016	1094.092529	1306.605347	134.175034	1050.853516	1139.535522	366.831726	1077.496338	1037.441772	364.429932	996.232605	1022.784363	303.525208	1033.440796	908.818359	384.375122	1103.673706	816.396606	338.909668	1041.687622	805.246826	375.887054	1131.807373	727.703796	347.213562	1068.557739	1149.229980	-71.913956	1084.616089	1104.487671	-75.394775	1106.025024	1060.492310	31.368845	1168.790894	1173.005005	-28.539993	1125.310303	1272.627075	-33.124290	1189.696289	1267.010254	3.643079	1134.432861	1345.128540	-47.725525	
2320	9.276000	949.920532	1418.536133	150.785721	1039.866211	1354.022583	328.286835	996.293152	1351.558716	-43.658913	1094.017700	1306.608154	134.213394	1050.824585	1139.496216	366.802399	1077.540405	1037.421021	364.354919	996.276672	1022.764465	303.442200	1033.519043	908.762939	384.235413	1103.801758	816.390259	338.754639	1041.772827	805.199158	375.685120	1131.941040	727.670898	347.052887	1067.476562	1148.773438	-70.387276	1084.301514	1104.229126	-75.137314	1105.572510	1060.279663	31.629284	1168.568115	1172.681763	-28.286341	1125.297119	1272.317871	-32.998760	1189.650024	1266.607544	3.835057	1134.570312	1344.840210	-47.634357	
2321	9.280000	949.818665	1418.498169	150.791580	1039.785522	1354.012085	328.332214	996.278137	1351.457520	-43.627659	1093.937622	1306.611816	134.255356	1050.806030	1139.460571	366.774323	1077.567749	1037.397827	364.288940	996.316528	1022.737122	303.365204	1033.584595	908.709900	384.091614	1103.920654	816.389526	338.603424	1041.851196	805.158508	375.490173	1132.086182	727.662109	346.882507	1067.030884	1148.481934	-69.863708	1083.957520	1103.962402	-74.891060	1105.099487	1060.038818	31.876337	1168.354736	1172.274170	-28.047289	1125.325195	1271.994263	-32.904591	1189.623169	1266.156860	4.010814	1134.781372	1344.534180	-47.554844	
2322	9.284000	949.709229	1418.463013	150.804489	1039.690674	1354.012573	328.379425	996.254578	1351.359131	-43.598217	1093.852173	1306.617188	134.292755	1050.776489	1139.430054	366.756378	1077.586426	1037.385742	364.229889	996.362305	1022.714844	303.291687	1033.642334	908.661133	383.959625	1104.041992	816.397278	338.457031	1041.929443	805.121460	375.297852	1132.229736	727.664185	346.694092	1066.720093	1148.234985	-69.606750	1083.588867	1103.687256	-74.643707	1104.598755	1059.794678	32.125061	1168.147095	1171.830078	-27.832199	1125.400391	1271.652832	-32.831345	1189.632690	1265.689209	4.162965	1135.059814	1344.198486	-47.510746	
2323	9.288000	949.599854	1418.431763	150.830902	1039.584595	1354.014404	328.430481	996.210266	1351.263916	-43.568409	1093.760010	1306.627319	134.333282	1050.747925	1139.417603	366.734436	1077.602173	1037.382446	364.171997	996.407776	1022.691345	303.220123	1033.705688	908.614319	383.831879	1104.157471	816.407715	338.309540	1042.006226	805.087891	375.114410	1132.359375	727.676880	346.487396	1066.421387	1147.997437	-69.428413	1083.206177	1103.405762	-74.412079	1104.080200	1059.536011	32.363464	1167.939941	1171.363770	-27.648813	1125.514282	1271.283936	-32.776180	1189.672485	1265.212524	4.276692	1135.410767	1343.832275	-47.499062	
2324	9.292000	949.475647	1418.395996	150.866501	1039.470947	1354.016968	328.481781	996.151672	1351.177124	-43.542004	1093.659180	1306.628174	134.373856	1050.716064	1139.404297	366.710175	1077.613159	1037.381836	364.117523	996.436462	1022.685547	303.151367	1033.769165	908.568237	383.710693	1104.265381	816.424255	338.163147	1042.081665	805.051514	374.933594	1132.496094	727.693420	346.263519	1066.113647	1147.757568	-69.272102	1082.799683	1103.126099	-74.193146	1103.550659	1059.281372	32.599659	1167.724854	1170.882690	-27.489975	1125.649658	1270.912109	-32.741463	1189.737305	1264.675171	4.381688	1135.839966	1343.439697	-47.493053	
2325	9.296000	949.340332	1418.364990	150.891708	1039.345337	1354.029297	328.542419	996.080505	1351.096802	-43.506947	1093.553711	1306.645020	134.428650	1050.670044	1139.390015	366.690216	1077.614136	1037.385254	364.069672	996.446350	1022.693848	303.096039	1033.826172	908.528870	383.598877	1104.375244	816.445496	338.019073	1042.160767	805.020996	374.764252	1132.631592	727.712646	346.021088	1065.788452	1147.511353	-69.129959	1082.342285	1102.848755	-73.980598	1102.988281	1059.012817	32.819187	1167.509033	1170.375000	-27.352114	1125.803833	1270.532837	-32.732376	1189.837646	1264.082520	4.478067	1136.329956	1343.044067	-47.531845	
2326	9.300000	949.197571	1418.344849	150.912399	1039.209351	1354.042480	328.598572	995.994385	1351.019165	-43.483437	1093.432129	1306.648926	134.475571	1050.621704	1139.394653	366.676239	1077.606323	1037.390259	364.024231	996.445557	1022.702209	303.050110	1033.889038	908.494324	383.492157	1104.482788	816.471008	337.870605	1042.227417	804.996887	374.604279	1132.762695	727.741150	345.774811	1065.439453	1147.259277	-68.990700	1081.828857	1102.565186	-73.784546	1102.375854	1058.732544	32.979889	1167.283081	1169.829590	-27.222603	1125.983521	1270.146118	-32.739899	1189.957886	1263.466797	4.556915	1136.878052	1342.651489	-47.592651	
2327	9.304000	949.058044	1418.315308	150.935608	1039.076904	1354.056396	328.655945	995.963806	1350.811890	-43.402905	1093.315308	1306.651978	134.533585	1050.565308	1139.386597	366.665131	1077.593506	1037.397949	363.975189	996.456177	1022.697205	302.996765	1033.942261	908.468628	383.391693	1104.585449	816.505188	337.720032	1042.281982	804.981934	374.454254	1132.891479	727.771912	345.542694	1065.053345	1147.001465	-68.854309	1081.290771	1102.284058	-73.592445	1101.730347	1058.434570	33.109657	1167.051147	1169.249268	-27.106859	1126.194702	1269.739624	-32.752628	1190.096313	1262.828369	4.601809	1137.473633	1342.217285	-47.679165	
2328	9.308000	948.920715	1418.292236	150.979004	1038.943970	1354.077515	328.710236	996.003296	1350.444336	-43.237274	1092.497070	1306.517334	134.540665	1050.514648	1139.390991	366.674896	1077.574707	1037.404175	363.938385	996.465637	1022.681824	302.946564	1033.995117	908.438293	383.288452	1104.680298	816.546753	337.568878	1042.333130	804.969116	374.315887	1133.017334	727.804138	345.349182	1064.619873	1146.739746	-68.714378	1080.744507	1102.005005	-73.425148	1101.047485	1058.130127	33.233963	1166.816895	1168.647217	-27.035479	1126.438965	1269.317627	-32.784725	1190.270142	1262.140991	4.618606	1138.125488	1341.737061	-47.814465	
2329	9.312000	948.783081	1418.272705	151.026993	1038.808105	1354.098511	328.774414	995.918213	1350.325317	-43.186192	1090.857544	1306.194092	134.478455	1050.451294	1139.387329	366.662323	1077.540405	1037.411377	363.906128	996.453674	1022.673340	302.912415	1034.037598	908.412476	383.194763	1104.764282	816.589966	337.426514	1042.389282	804.940002	374.175354	1133.136841	727.843201	345.181244	1064.153198	1146.486206	-68.578072	1080.167725	1101.708740	-73.255051	1100.349976	1057.838379	33.365711	1166.581909	1168.028320	-26.997290	1126.708496	1268.867920	-32.841625	1190.473022	1261.405762	4.626469	1138.851440	1341.239990	-47.975441	
